<svg width="73" height="54" viewBox="0 0 73 54" fill="none" xmlns="http://www.w3.org/2000/svg">
<g id="logo" clip-path="url(#clip0_1_4)">
<path id="Vector" fill-rule="evenodd" clip-rule="evenodd" d="M19.5098 23.027L16.821 26.1892L39.1326 53.9098L44.2573 46.7838L24.7762 23.027H19.5098Z" fill="white"/>
<path id="Vector_2" d="M63.6096 9.56757L42.1342 39.1622L46.217 43.8649L70.9586 9.56757H63.6096Z" fill="white"/>
<path id="Vector_3" d="M10.9418 9.56757H27.028L18.8624 19.5405L10.9418 9.56757Z" fill="white"/>
<path id="Vector_4" d="M5.87921 14.1892L8.98212 10.2162L16.4944 19.5405H9.63536L5.87921 14.1892Z" fill="white"/>
<path id="Vector_5" d="M36.01 11.7568L31.6823 6.64865L21.2304 20.5135H29.4776L36.01 11.7568Z" fill="#EF233C"/>
<path id="Vector_6" d="M44.094 19.7838L32.5806 5.51351L36.745 0L48.2584 14.2703L44.094 19.7838Z" fill="#EF233C"/>
<path id="Vector_7" d="M18.4541 43.9459H9.22707L14.453 37.4594L23.4351 49.054H28.0895L29.9676 47.1892L15.0246 28.5405L0 47.1892L2.12304 49.2973H22.6186L18.4541 43.9459Z" fill="#EF233C"/>
<path id="Vector_8" d="M53.6477 20.5135H45.5638L53.6477 9.56757H61.6499L53.6477 20.5135Z" fill="white"/>
<path id="Vector_9" d="M36.5817 32.5946L42.1342 24.973L46.3803 30.2432L40.9911 37.8649L36.5817 32.5946Z" fill="white"/>
<path id="Vector_10" d="M53.2394 36.8919L58.2204 30.1622L67.2025 41.2703H56.6689L53.2394 36.8919Z" fill="#EF233C"/>
<path id="Vector_11" d="M65.8143 43.2162H52.4228L48.5034 49.2973H61.8132L65.8143 43.2162Z" fill="#EF233C"/>
<path id="Vector_12" d="M64.2629 49.2973L68.1823 43.2162L73 49.2973H64.2629Z" fill="#EF233C"/>
</g>
<defs>
<clipPath id="clip0_1_4">
<rect width="73" height="54" fill="white"/>
</clipPath>
</defs>
</svg>
