<svg width="44" height="44" viewBox="0 0 44 44" fill="none" xmlns="http://www.w3.org/2000/svg">
<g id="mingcute:mouse-line" clip-path="url(#clip0_1_55)">
<g id="Group">
<path id="Vector" d="M23.8333 3.66666C26.6794 3.66655 29.4147 4.76953 31.4645 6.74384C33.5144 8.71816 34.7193 11.4101 34.826 14.2542L34.8333 14.6667V29.3333C34.8334 32.1794 33.7305 34.9147 31.7561 36.9645C29.7818 39.0144 27.0899 40.2193 24.2458 40.326L23.8333 40.3333H20.1667C17.3206 40.3334 14.5853 39.2305 12.5355 37.2561C10.4856 35.2818 9.28073 32.5899 9.174 29.7458L9.16667 29.3333V14.6667C9.16656 11.8206 10.2695 9.08533 12.2439 7.03546C14.2182 4.98559 16.9101 3.78072 19.7542 3.67399L20.1667 3.66666H23.8333ZM23.8333 7.33332H20.1667C18.2852 7.33332 16.4757 8.05645 15.1125 9.35315C13.7493 10.6498 12.9366 12.4209 12.8425 14.3L12.8333 14.6667V29.3333C12.8333 31.2148 13.5565 33.0242 14.8532 34.3875C16.1499 35.7507 17.9209 36.5634 19.8 36.6575L20.1667 36.6667H23.8333C25.7148 36.6667 27.5243 35.9435 28.8875 34.6468C30.2507 33.3501 31.0634 31.5791 31.1575 29.7L31.1667 29.3333V14.6667C31.1667 12.7852 30.4435 10.9757 29.1468 9.6125C27.8501 8.24927 26.0791 7.43656 24.2 7.34249L23.8333 7.33332ZM22 11C22.449 11 22.8825 11.1649 23.218 11.4633C23.5536 11.7617 23.768 12.1729 23.8205 12.6188L23.8333 12.8333V20.1667C23.8328 20.6339 23.6539 21.0834 23.3331 21.4232C23.0123 21.7629 22.5739 21.9674 22.1074 21.9948C21.641 22.0222 21.1816 21.8704 20.8233 21.5705C20.465 21.2706 20.2347 20.8452 20.1795 20.3812L20.1667 20.1667V12.8333C20.1667 12.3471 20.3598 11.8808 20.7036 11.537C21.0475 11.1931 21.5138 11 22 11Z" fill="#EDF2F4"/>
</g>
</g>
<defs>
<clipPath id="clip0_1_55">
<rect width="44" height="44" fill="white"/>
</clipPath>
</defs>
</svg>
